<svg xmlns="http://www.w3.org/2000/svg" viewBox="0 0 512 512">
  <defs>
    <linearGradient id="bg" x1="0%" y1="0%" x2="100%" y2="100%">
      <stop offset="0%" stop-color="#0f766e" />
      <stop offset="100%" stop-color="#1d4ed8" />
    </linearGradient>
    <linearGradient id="road" x1="0%" y1="0%" x2="100%" y2="100%">
      <stop offset="0%" stop-color="#e2e8f0" />
      <stop offset="100%" stop-color="#f8fafc" />
    </linearGradient>
  </defs>
  <rect width="512" height="512" rx="116" fill="url(#bg)" />
  <path d="M136 112c36 0 66 30 66 66v58h108v-58c0-36 30-66 66-66s66 30 66 66v158c0 36-30 66-66 66s-66-30-66-66v-42H202v42c0 36-30 66-66 66s-66-30-66-66V178c0-36 30-66 66-66Z" fill="#082f49" opacity=".24" />
  <path d="M156 88c32 0 58 26 58 58v86h84v-86c0-32 26-58 58-58s58 26 58 58v220c0 32-26 58-58 58s-58-26-58-58v-66h-84v66c0 32-26 58-58 58s-58-26-58-58V146c0-32 26-58 58-58Z" fill="url(#road)" />
  <path d="M210 126h92v260h-92z" fill="#0f766e" opacity=".16" />
  <path d="M256 126c8.837 0 16 7.163 16 16v22c0 8.837-7.163 16-16 16s-16-7.163-16-16v-22c0-8.837 7.163-16 16-16Zm0 88c8.837 0 16 7.163 16 16v50c0 8.837-7.163 16-16 16s-16-7.163-16-16v-50c0-8.837 7.163-16 16-16Zm0 116c8.837 0 16 7.163 16 16v22c0 8.837-7.163 16-16 16s-16-7.163-16-16v-22c0-8.837 7.163-16 16-16Z" fill="#0f766e" />
  <circle cx="156" cy="366" r="26" fill="#0f766e" />
  <circle cx="356" cy="146" r="26" fill="#1d4ed8" />
</svg>
