<svg xmlns="http://www.w3.org/2000/svg" viewBox="0 0 512 512">
  <defs>
    <radialGradient id="bg" cx="20%" cy="20%" r="90%">
      <stop offset="0%" stop-color="#14b8a6" />
      <stop offset="100%" stop-color="#1d4ed8" />
    </radialGradient>
  </defs>
  <rect width="512" height="512" rx="160" fill="url(#bg)" />
  <circle cx="256" cy="256" r="164" fill="#0f172a" opacity=".18" />
  <path d="M174 114c27.614 0 50 22.386 50 50v84h64v-84c0-27.614 22.386-50 50-50s50 22.386 50 50v184c0 27.614-22.386 50-50 50s-50-22.386-50-50v-52h-64v52c0 27.614-22.386 50-50 50s-50-22.386-50-50V164c0-27.614 22.386-50 50-50Z" fill="#f8fafc" />
  <path d="M246 132h20v36h-20zm0 72h20v56h-20zm0 92h20v36h-20z" fill="#0f766e" />
  <circle cx="174" cy="348" r="20" fill="#0f766e" />
  <circle cx="338" cy="164" r="20" fill="#1d4ed8" />
</svg>
